M48
; DRILL file {KiCad 8.0.2} date 2024-05-03T14:20:56+0200
; FORMAT={-:-/ absolute / metric / decimal}
; #@! TF.CreationDate,2024-05-03T14:20:56+02:00
; #@! TF.GenerationSoftware,Kicad,Pcbnew,8.0.2
; #@! TF.FileFunction,Plated,1,2,PTH
FMAT,2
METRIC
; #@! TA.AperFunction,Plated,PTH,ViaDrill
T1C0.500
; #@! TA.AperFunction,Plated,PTH,ComponentDrill
T2C0.800
; #@! TA.AperFunction,Plated,PTH,ComponentDrill
T3C0.900
; #@! TA.AperFunction,Plated,PTH,ComponentDrill
T4C1.000
; #@! TA.AperFunction,Plated,PTH,ComponentDrill
T5C1.100
; #@! TA.AperFunction,Plated,PTH,ComponentDrill
T6C1.500
%
G90
G05
T1
X130.5Y-110.0
T2
X102.0Y-116.19
X102.0Y-123.81
X108.69Y-120.5
X112.68Y-129.0
X112.68Y-131.54
X112.68Y-134.08
X112.68Y-136.62
X116.31Y-120.5
X120.3Y-129.0
X120.3Y-131.54
X120.3Y-134.08
X120.3Y-136.62
X124.0Y-129.0
X124.0Y-136.62
X128.0Y-129.0
X128.0Y-136.62
X151.0Y-116.19
X151.0Y-123.81
T3
X105.96Y-113.0
X106.235Y-127.5
X108.5Y-113.0
X108.775Y-127.5
X113.9Y-102.5
X115.9Y-102.5
X117.9Y-102.5
X144.725Y-113.0
X144.735Y-127.5
X147.265Y-113.0
X147.275Y-127.5
T4
X136.5Y-130.129
X136.5Y-135.129
T5
X101.75Y-101.75
X101.75Y-106.25
X101.75Y-133.75
X101.75Y-138.25
X108.25Y-101.75
X108.25Y-106.25
X108.25Y-133.75
X108.25Y-138.25
X144.75Y-101.75
X144.75Y-106.25
X144.75Y-133.75
X144.75Y-138.25
X151.25Y-101.75
X151.25Y-106.25
X151.25Y-133.75
X151.25Y-138.25
T6
X111.8Y-102.5
X114.75Y-113.5
X120.0Y-102.5
X135.24Y-113.5
M30
