G04 #@! TF.GenerationSoftware,KiCad,Pcbnew,8.0.2*
G04 #@! TF.CreationDate,2024-05-03T14:22:56+02:00*
G04 #@! TF.ProjectId,Simon elab V2,53696d6f-6e20-4656-9c61-622056322e6b,rev?*
G04 #@! TF.SameCoordinates,Original*
G04 #@! TF.FileFunction,Legend,Top*
G04 #@! TF.FilePolarity,Positive*
%FSLAX46Y46*%
G04 Gerber Fmt 4.6, Leading zero omitted, Abs format (unit mm)*
G04 Created by KiCad (PCBNEW 8.0.2) date 2024-05-03 14:22:56*
%MOMM*%
%LPD*%
G01*
G04 APERTURE LIST*
%ADD10C,0.150000*%
%ADD11C,0.120000*%
%ADD12C,2.000000*%
%ADD13C,1.600000*%
%ADD14O,1.600000X1.600000*%
%ADD15R,1.600000X1.600000*%
%ADD16R,1.800000X1.800000*%
%ADD17C,1.800000*%
%ADD18R,3.000000X3.000000*%
%ADD19C,3.000000*%
%ADD20O,2.200000X3.500000*%
%ADD21R,1.500000X2.500000*%
%ADD22O,1.500000X2.500000*%
%ADD23R,2.000000X2.000000*%
G04 APERTURE END LIST*
D10*
X146666667Y-134907200D02*
X146809524Y-134954819D01*
X146809524Y-134954819D02*
X147047619Y-134954819D01*
X147047619Y-134954819D02*
X147142857Y-134907200D01*
X147142857Y-134907200D02*
X147190476Y-134859580D01*
X147190476Y-134859580D02*
X147238095Y-134764342D01*
X147238095Y-134764342D02*
X147238095Y-134669104D01*
X147238095Y-134669104D02*
X147190476Y-134573866D01*
X147190476Y-134573866D02*
X147142857Y-134526247D01*
X147142857Y-134526247D02*
X147047619Y-134478628D01*
X147047619Y-134478628D02*
X146857143Y-134431009D01*
X146857143Y-134431009D02*
X146761905Y-134383390D01*
X146761905Y-134383390D02*
X146714286Y-134335771D01*
X146714286Y-134335771D02*
X146666667Y-134240533D01*
X146666667Y-134240533D02*
X146666667Y-134145295D01*
X146666667Y-134145295D02*
X146714286Y-134050057D01*
X146714286Y-134050057D02*
X146761905Y-134002438D01*
X146761905Y-134002438D02*
X146857143Y-133954819D01*
X146857143Y-133954819D02*
X147095238Y-133954819D01*
X147095238Y-133954819D02*
X147238095Y-134002438D01*
X147571429Y-133954819D02*
X147809524Y-134954819D01*
X147809524Y-134954819D02*
X148000000Y-134240533D01*
X148000000Y-134240533D02*
X148190476Y-134954819D01*
X148190476Y-134954819D02*
X148428572Y-133954819D01*
X149238095Y-134288152D02*
X149238095Y-134954819D01*
X149000000Y-133907200D02*
X148761905Y-134621485D01*
X148761905Y-134621485D02*
X149380952Y-134621485D01*
X112333333Y-120954819D02*
X112000000Y-120478628D01*
X111761905Y-120954819D02*
X111761905Y-119954819D01*
X111761905Y-119954819D02*
X112142857Y-119954819D01*
X112142857Y-119954819D02*
X112238095Y-120002438D01*
X112238095Y-120002438D02*
X112285714Y-120050057D01*
X112285714Y-120050057D02*
X112333333Y-120145295D01*
X112333333Y-120145295D02*
X112333333Y-120288152D01*
X112333333Y-120288152D02*
X112285714Y-120383390D01*
X112285714Y-120383390D02*
X112238095Y-120431009D01*
X112238095Y-120431009D02*
X112142857Y-120478628D01*
X112142857Y-120478628D02*
X111761905Y-120478628D01*
X113285714Y-120954819D02*
X112714286Y-120954819D01*
X113000000Y-120954819D02*
X113000000Y-119954819D01*
X113000000Y-119954819D02*
X112904762Y-120097676D01*
X112904762Y-120097676D02*
X112809524Y-120192914D01*
X112809524Y-120192914D02*
X112714286Y-120240533D01*
X115728095Y-134954819D02*
X115728095Y-135764342D01*
X115728095Y-135764342D02*
X115775714Y-135859580D01*
X115775714Y-135859580D02*
X115823333Y-135907200D01*
X115823333Y-135907200D02*
X115918571Y-135954819D01*
X115918571Y-135954819D02*
X116109047Y-135954819D01*
X116109047Y-135954819D02*
X116204285Y-135907200D01*
X116204285Y-135907200D02*
X116251904Y-135859580D01*
X116251904Y-135859580D02*
X116299523Y-135764342D01*
X116299523Y-135764342D02*
X116299523Y-134954819D01*
X117299523Y-135954819D02*
X116728095Y-135954819D01*
X117013809Y-135954819D02*
X117013809Y-134954819D01*
X117013809Y-134954819D02*
X116918571Y-135097676D01*
X116918571Y-135097676D02*
X116823333Y-135192914D01*
X116823333Y-135192914D02*
X116728095Y-135240533D01*
X127833333Y-133264819D02*
X127500000Y-132788628D01*
X127261905Y-133264819D02*
X127261905Y-132264819D01*
X127261905Y-132264819D02*
X127642857Y-132264819D01*
X127642857Y-132264819D02*
X127738095Y-132312438D01*
X127738095Y-132312438D02*
X127785714Y-132360057D01*
X127785714Y-132360057D02*
X127833333Y-132455295D01*
X127833333Y-132455295D02*
X127833333Y-132598152D01*
X127833333Y-132598152D02*
X127785714Y-132693390D01*
X127785714Y-132693390D02*
X127738095Y-132741009D01*
X127738095Y-132741009D02*
X127642857Y-132788628D01*
X127642857Y-132788628D02*
X127261905Y-132788628D01*
X128166667Y-132264819D02*
X128785714Y-132264819D01*
X128785714Y-132264819D02*
X128452381Y-132645771D01*
X128452381Y-132645771D02*
X128595238Y-132645771D01*
X128595238Y-132645771D02*
X128690476Y-132693390D01*
X128690476Y-132693390D02*
X128738095Y-132741009D01*
X128738095Y-132741009D02*
X128785714Y-132836247D01*
X128785714Y-132836247D02*
X128785714Y-133074342D01*
X128785714Y-133074342D02*
X128738095Y-133169580D01*
X128738095Y-133169580D02*
X128690476Y-133217200D01*
X128690476Y-133217200D02*
X128595238Y-133264819D01*
X128595238Y-133264819D02*
X128309524Y-133264819D01*
X128309524Y-133264819D02*
X128214286Y-133217200D01*
X128214286Y-133217200D02*
X128166667Y-133169580D01*
X106766905Y-123954819D02*
X106766905Y-122954819D01*
X106766905Y-122954819D02*
X107005000Y-122954819D01*
X107005000Y-122954819D02*
X107147857Y-123002438D01*
X107147857Y-123002438D02*
X107243095Y-123097676D01*
X107243095Y-123097676D02*
X107290714Y-123192914D01*
X107290714Y-123192914D02*
X107338333Y-123383390D01*
X107338333Y-123383390D02*
X107338333Y-123526247D01*
X107338333Y-123526247D02*
X107290714Y-123716723D01*
X107290714Y-123716723D02*
X107243095Y-123811961D01*
X107243095Y-123811961D02*
X107147857Y-123907200D01*
X107147857Y-123907200D02*
X107005000Y-123954819D01*
X107005000Y-123954819D02*
X106766905Y-123954819D01*
X108290714Y-123954819D02*
X107719286Y-123954819D01*
X108005000Y-123954819D02*
X108005000Y-122954819D01*
X108005000Y-122954819D02*
X107909762Y-123097676D01*
X107909762Y-123097676D02*
X107814524Y-123192914D01*
X107814524Y-123192914D02*
X107719286Y-123240533D01*
X146666667Y-102407200D02*
X146809524Y-102454819D01*
X146809524Y-102454819D02*
X147047619Y-102454819D01*
X147047619Y-102454819D02*
X147142857Y-102407200D01*
X147142857Y-102407200D02*
X147190476Y-102359580D01*
X147190476Y-102359580D02*
X147238095Y-102264342D01*
X147238095Y-102264342D02*
X147238095Y-102169104D01*
X147238095Y-102169104D02*
X147190476Y-102073866D01*
X147190476Y-102073866D02*
X147142857Y-102026247D01*
X147142857Y-102026247D02*
X147047619Y-101978628D01*
X147047619Y-101978628D02*
X146857143Y-101931009D01*
X146857143Y-101931009D02*
X146761905Y-101883390D01*
X146761905Y-101883390D02*
X146714286Y-101835771D01*
X146714286Y-101835771D02*
X146666667Y-101740533D01*
X146666667Y-101740533D02*
X146666667Y-101645295D01*
X146666667Y-101645295D02*
X146714286Y-101550057D01*
X146714286Y-101550057D02*
X146761905Y-101502438D01*
X146761905Y-101502438D02*
X146857143Y-101454819D01*
X146857143Y-101454819D02*
X147095238Y-101454819D01*
X147095238Y-101454819D02*
X147238095Y-101502438D01*
X147571429Y-101454819D02*
X147809524Y-102454819D01*
X147809524Y-102454819D02*
X148000000Y-101740533D01*
X148000000Y-101740533D02*
X148190476Y-102454819D01*
X148190476Y-102454819D02*
X148428572Y-101454819D01*
X149285714Y-101454819D02*
X148809524Y-101454819D01*
X148809524Y-101454819D02*
X148761905Y-101931009D01*
X148761905Y-101931009D02*
X148809524Y-101883390D01*
X148809524Y-101883390D02*
X148904762Y-101835771D01*
X148904762Y-101835771D02*
X149142857Y-101835771D01*
X149142857Y-101835771D02*
X149238095Y-101883390D01*
X149238095Y-101883390D02*
X149285714Y-101931009D01*
X149285714Y-101931009D02*
X149333333Y-102026247D01*
X149333333Y-102026247D02*
X149333333Y-102264342D01*
X149333333Y-102264342D02*
X149285714Y-102359580D01*
X149285714Y-102359580D02*
X149238095Y-102407200D01*
X149238095Y-102407200D02*
X149142857Y-102454819D01*
X149142857Y-102454819D02*
X148904762Y-102454819D01*
X148904762Y-102454819D02*
X148809524Y-102407200D01*
X148809524Y-102407200D02*
X148761905Y-102359580D01*
X145256905Y-109494819D02*
X145256905Y-108494819D01*
X145256905Y-108494819D02*
X145495000Y-108494819D01*
X145495000Y-108494819D02*
X145637857Y-108542438D01*
X145637857Y-108542438D02*
X145733095Y-108637676D01*
X145733095Y-108637676D02*
X145780714Y-108732914D01*
X145780714Y-108732914D02*
X145828333Y-108923390D01*
X145828333Y-108923390D02*
X145828333Y-109066247D01*
X145828333Y-109066247D02*
X145780714Y-109256723D01*
X145780714Y-109256723D02*
X145733095Y-109351961D01*
X145733095Y-109351961D02*
X145637857Y-109447200D01*
X145637857Y-109447200D02*
X145495000Y-109494819D01*
X145495000Y-109494819D02*
X145256905Y-109494819D01*
X146161667Y-108494819D02*
X146780714Y-108494819D01*
X146780714Y-108494819D02*
X146447381Y-108875771D01*
X146447381Y-108875771D02*
X146590238Y-108875771D01*
X146590238Y-108875771D02*
X146685476Y-108923390D01*
X146685476Y-108923390D02*
X146733095Y-108971009D01*
X146733095Y-108971009D02*
X146780714Y-109066247D01*
X146780714Y-109066247D02*
X146780714Y-109304342D01*
X146780714Y-109304342D02*
X146733095Y-109399580D01*
X146733095Y-109399580D02*
X146685476Y-109447200D01*
X146685476Y-109447200D02*
X146590238Y-109494819D01*
X146590238Y-109494819D02*
X146304524Y-109494819D01*
X146304524Y-109494819D02*
X146209286Y-109447200D01*
X146209286Y-109447200D02*
X146161667Y-109399580D01*
X103666667Y-102907200D02*
X103809524Y-102954819D01*
X103809524Y-102954819D02*
X104047619Y-102954819D01*
X104047619Y-102954819D02*
X104142857Y-102907200D01*
X104142857Y-102907200D02*
X104190476Y-102859580D01*
X104190476Y-102859580D02*
X104238095Y-102764342D01*
X104238095Y-102764342D02*
X104238095Y-102669104D01*
X104238095Y-102669104D02*
X104190476Y-102573866D01*
X104190476Y-102573866D02*
X104142857Y-102526247D01*
X104142857Y-102526247D02*
X104047619Y-102478628D01*
X104047619Y-102478628D02*
X103857143Y-102431009D01*
X103857143Y-102431009D02*
X103761905Y-102383390D01*
X103761905Y-102383390D02*
X103714286Y-102335771D01*
X103714286Y-102335771D02*
X103666667Y-102240533D01*
X103666667Y-102240533D02*
X103666667Y-102145295D01*
X103666667Y-102145295D02*
X103714286Y-102050057D01*
X103714286Y-102050057D02*
X103761905Y-102002438D01*
X103761905Y-102002438D02*
X103857143Y-101954819D01*
X103857143Y-101954819D02*
X104095238Y-101954819D01*
X104095238Y-101954819D02*
X104238095Y-102002438D01*
X104571429Y-101954819D02*
X104809524Y-102954819D01*
X104809524Y-102954819D02*
X105000000Y-102240533D01*
X105000000Y-102240533D02*
X105190476Y-102954819D01*
X105190476Y-102954819D02*
X105428572Y-101954819D01*
X105761905Y-102050057D02*
X105809524Y-102002438D01*
X105809524Y-102002438D02*
X105904762Y-101954819D01*
X105904762Y-101954819D02*
X106142857Y-101954819D01*
X106142857Y-101954819D02*
X106238095Y-102002438D01*
X106238095Y-102002438D02*
X106285714Y-102050057D01*
X106285714Y-102050057D02*
X106333333Y-102145295D01*
X106333333Y-102145295D02*
X106333333Y-102240533D01*
X106333333Y-102240533D02*
X106285714Y-102383390D01*
X106285714Y-102383390D02*
X105714286Y-102954819D01*
X105714286Y-102954819D02*
X106333333Y-102954819D01*
X103666667Y-134407200D02*
X103809524Y-134454819D01*
X103809524Y-134454819D02*
X104047619Y-134454819D01*
X104047619Y-134454819D02*
X104142857Y-134407200D01*
X104142857Y-134407200D02*
X104190476Y-134359580D01*
X104190476Y-134359580D02*
X104238095Y-134264342D01*
X104238095Y-134264342D02*
X104238095Y-134169104D01*
X104238095Y-134169104D02*
X104190476Y-134073866D01*
X104190476Y-134073866D02*
X104142857Y-134026247D01*
X104142857Y-134026247D02*
X104047619Y-133978628D01*
X104047619Y-133978628D02*
X103857143Y-133931009D01*
X103857143Y-133931009D02*
X103761905Y-133883390D01*
X103761905Y-133883390D02*
X103714286Y-133835771D01*
X103714286Y-133835771D02*
X103666667Y-133740533D01*
X103666667Y-133740533D02*
X103666667Y-133645295D01*
X103666667Y-133645295D02*
X103714286Y-133550057D01*
X103714286Y-133550057D02*
X103761905Y-133502438D01*
X103761905Y-133502438D02*
X103857143Y-133454819D01*
X103857143Y-133454819D02*
X104095238Y-133454819D01*
X104095238Y-133454819D02*
X104238095Y-133502438D01*
X104571429Y-133454819D02*
X104809524Y-134454819D01*
X104809524Y-134454819D02*
X105000000Y-133740533D01*
X105000000Y-133740533D02*
X105190476Y-134454819D01*
X105190476Y-134454819D02*
X105428572Y-133454819D01*
X105714286Y-133454819D02*
X106333333Y-133454819D01*
X106333333Y-133454819D02*
X106000000Y-133835771D01*
X106000000Y-133835771D02*
X106142857Y-133835771D01*
X106142857Y-133835771D02*
X106238095Y-133883390D01*
X106238095Y-133883390D02*
X106285714Y-133931009D01*
X106285714Y-133931009D02*
X106333333Y-134026247D01*
X106333333Y-134026247D02*
X106333333Y-134264342D01*
X106333333Y-134264342D02*
X106285714Y-134359580D01*
X106285714Y-134359580D02*
X106238095Y-134407200D01*
X106238095Y-134407200D02*
X106142857Y-134454819D01*
X106142857Y-134454819D02*
X105857143Y-134454819D01*
X105857143Y-134454819D02*
X105761905Y-134407200D01*
X105761905Y-134407200D02*
X105714286Y-134359580D01*
X145261905Y-123954819D02*
X145261905Y-122954819D01*
X145261905Y-122954819D02*
X145500000Y-122954819D01*
X145500000Y-122954819D02*
X145642857Y-123002438D01*
X145642857Y-123002438D02*
X145738095Y-123097676D01*
X145738095Y-123097676D02*
X145785714Y-123192914D01*
X145785714Y-123192914D02*
X145833333Y-123383390D01*
X145833333Y-123383390D02*
X145833333Y-123526247D01*
X145833333Y-123526247D02*
X145785714Y-123716723D01*
X145785714Y-123716723D02*
X145738095Y-123811961D01*
X145738095Y-123811961D02*
X145642857Y-123907200D01*
X145642857Y-123907200D02*
X145500000Y-123954819D01*
X145500000Y-123954819D02*
X145261905Y-123954819D01*
X146690476Y-123288152D02*
X146690476Y-123954819D01*
X146452381Y-122907200D02*
X146214286Y-123621485D01*
X146214286Y-123621485D02*
X146833333Y-123621485D01*
X150833333Y-120454819D02*
X150500000Y-119978628D01*
X150261905Y-120454819D02*
X150261905Y-119454819D01*
X150261905Y-119454819D02*
X150642857Y-119454819D01*
X150642857Y-119454819D02*
X150738095Y-119502438D01*
X150738095Y-119502438D02*
X150785714Y-119550057D01*
X150785714Y-119550057D02*
X150833333Y-119645295D01*
X150833333Y-119645295D02*
X150833333Y-119788152D01*
X150833333Y-119788152D02*
X150785714Y-119883390D01*
X150785714Y-119883390D02*
X150738095Y-119931009D01*
X150738095Y-119931009D02*
X150642857Y-119978628D01*
X150642857Y-119978628D02*
X150261905Y-119978628D01*
X151690476Y-119788152D02*
X151690476Y-120454819D01*
X151452381Y-119407200D02*
X151214286Y-120121485D01*
X151214286Y-120121485D02*
X151833333Y-120121485D01*
X132214285Y-116931009D02*
X132357142Y-116978628D01*
X132357142Y-116978628D02*
X132404761Y-117026247D01*
X132404761Y-117026247D02*
X132452380Y-117121485D01*
X132452380Y-117121485D02*
X132452380Y-117264342D01*
X132452380Y-117264342D02*
X132404761Y-117359580D01*
X132404761Y-117359580D02*
X132357142Y-117407200D01*
X132357142Y-117407200D02*
X132261904Y-117454819D01*
X132261904Y-117454819D02*
X131880952Y-117454819D01*
X131880952Y-117454819D02*
X131880952Y-116454819D01*
X131880952Y-116454819D02*
X132214285Y-116454819D01*
X132214285Y-116454819D02*
X132309523Y-116502438D01*
X132309523Y-116502438D02*
X132357142Y-116550057D01*
X132357142Y-116550057D02*
X132404761Y-116645295D01*
X132404761Y-116645295D02*
X132404761Y-116740533D01*
X132404761Y-116740533D02*
X132357142Y-116835771D01*
X132357142Y-116835771D02*
X132309523Y-116883390D01*
X132309523Y-116883390D02*
X132214285Y-116931009D01*
X132214285Y-116931009D02*
X131880952Y-116931009D01*
X132738095Y-116454819D02*
X133309523Y-116454819D01*
X133023809Y-117454819D02*
X133023809Y-116454819D01*
X134166666Y-117454819D02*
X133595238Y-117454819D01*
X133880952Y-117454819D02*
X133880952Y-116454819D01*
X133880952Y-116454819D02*
X133785714Y-116597676D01*
X133785714Y-116597676D02*
X133690476Y-116692914D01*
X133690476Y-116692914D02*
X133595238Y-116740533D01*
X116928571Y-113614699D02*
X118071429Y-113614699D01*
X117500000Y-114186127D02*
X117500000Y-113043270D01*
X106491905Y-109494819D02*
X106491905Y-108494819D01*
X106491905Y-108494819D02*
X106730000Y-108494819D01*
X106730000Y-108494819D02*
X106872857Y-108542438D01*
X106872857Y-108542438D02*
X106968095Y-108637676D01*
X106968095Y-108637676D02*
X107015714Y-108732914D01*
X107015714Y-108732914D02*
X107063333Y-108923390D01*
X107063333Y-108923390D02*
X107063333Y-109066247D01*
X107063333Y-109066247D02*
X107015714Y-109256723D01*
X107015714Y-109256723D02*
X106968095Y-109351961D01*
X106968095Y-109351961D02*
X106872857Y-109447200D01*
X106872857Y-109447200D02*
X106730000Y-109494819D01*
X106730000Y-109494819D02*
X106491905Y-109494819D01*
X107444286Y-108590057D02*
X107491905Y-108542438D01*
X107491905Y-108542438D02*
X107587143Y-108494819D01*
X107587143Y-108494819D02*
X107825238Y-108494819D01*
X107825238Y-108494819D02*
X107920476Y-108542438D01*
X107920476Y-108542438D02*
X107968095Y-108590057D01*
X107968095Y-108590057D02*
X108015714Y-108685295D01*
X108015714Y-108685295D02*
X108015714Y-108780533D01*
X108015714Y-108780533D02*
X107968095Y-108923390D01*
X107968095Y-108923390D02*
X107396667Y-109494819D01*
X107396667Y-109494819D02*
X108015714Y-109494819D01*
X116166667Y-106407200D02*
X116309524Y-106454819D01*
X116309524Y-106454819D02*
X116547619Y-106454819D01*
X116547619Y-106454819D02*
X116642857Y-106407200D01*
X116642857Y-106407200D02*
X116690476Y-106359580D01*
X116690476Y-106359580D02*
X116738095Y-106264342D01*
X116738095Y-106264342D02*
X116738095Y-106169104D01*
X116738095Y-106169104D02*
X116690476Y-106073866D01*
X116690476Y-106073866D02*
X116642857Y-106026247D01*
X116642857Y-106026247D02*
X116547619Y-105978628D01*
X116547619Y-105978628D02*
X116357143Y-105931009D01*
X116357143Y-105931009D02*
X116261905Y-105883390D01*
X116261905Y-105883390D02*
X116214286Y-105835771D01*
X116214286Y-105835771D02*
X116166667Y-105740533D01*
X116166667Y-105740533D02*
X116166667Y-105645295D01*
X116166667Y-105645295D02*
X116214286Y-105550057D01*
X116214286Y-105550057D02*
X116261905Y-105502438D01*
X116261905Y-105502438D02*
X116357143Y-105454819D01*
X116357143Y-105454819D02*
X116595238Y-105454819D01*
X116595238Y-105454819D02*
X116738095Y-105502438D01*
X117071429Y-105454819D02*
X117309524Y-106454819D01*
X117309524Y-106454819D02*
X117500000Y-105740533D01*
X117500000Y-105740533D02*
X117690476Y-106454819D01*
X117690476Y-106454819D02*
X117928572Y-105454819D01*
X118833333Y-106454819D02*
X118261905Y-106454819D01*
X118547619Y-106454819D02*
X118547619Y-105454819D01*
X118547619Y-105454819D02*
X118452381Y-105597676D01*
X118452381Y-105597676D02*
X118357143Y-105692914D01*
X118357143Y-105692914D02*
X118261905Y-105740533D01*
X101833333Y-120454819D02*
X101500000Y-119978628D01*
X101261905Y-120454819D02*
X101261905Y-119454819D01*
X101261905Y-119454819D02*
X101642857Y-119454819D01*
X101642857Y-119454819D02*
X101738095Y-119502438D01*
X101738095Y-119502438D02*
X101785714Y-119550057D01*
X101785714Y-119550057D02*
X101833333Y-119645295D01*
X101833333Y-119645295D02*
X101833333Y-119788152D01*
X101833333Y-119788152D02*
X101785714Y-119883390D01*
X101785714Y-119883390D02*
X101738095Y-119931009D01*
X101738095Y-119931009D02*
X101642857Y-119978628D01*
X101642857Y-119978628D02*
X101261905Y-119978628D01*
X102214286Y-119550057D02*
X102261905Y-119502438D01*
X102261905Y-119502438D02*
X102357143Y-119454819D01*
X102357143Y-119454819D02*
X102595238Y-119454819D01*
X102595238Y-119454819D02*
X102690476Y-119502438D01*
X102690476Y-119502438D02*
X102738095Y-119550057D01*
X102738095Y-119550057D02*
X102785714Y-119645295D01*
X102785714Y-119645295D02*
X102785714Y-119740533D01*
X102785714Y-119740533D02*
X102738095Y-119883390D01*
X102738095Y-119883390D02*
X102166667Y-120454819D01*
X102166667Y-120454819D02*
X102785714Y-120454819D01*
X123833333Y-133454819D02*
X123500000Y-132978628D01*
X123261905Y-133454819D02*
X123261905Y-132454819D01*
X123261905Y-132454819D02*
X123642857Y-132454819D01*
X123642857Y-132454819D02*
X123738095Y-132502438D01*
X123738095Y-132502438D02*
X123785714Y-132550057D01*
X123785714Y-132550057D02*
X123833333Y-132645295D01*
X123833333Y-132645295D02*
X123833333Y-132788152D01*
X123833333Y-132788152D02*
X123785714Y-132883390D01*
X123785714Y-132883390D02*
X123738095Y-132931009D01*
X123738095Y-132931009D02*
X123642857Y-132978628D01*
X123642857Y-132978628D02*
X123261905Y-132978628D01*
X124738095Y-132454819D02*
X124261905Y-132454819D01*
X124261905Y-132454819D02*
X124214286Y-132931009D01*
X124214286Y-132931009D02*
X124261905Y-132883390D01*
X124261905Y-132883390D02*
X124357143Y-132835771D01*
X124357143Y-132835771D02*
X124595238Y-132835771D01*
X124595238Y-132835771D02*
X124690476Y-132883390D01*
X124690476Y-132883390D02*
X124738095Y-132931009D01*
X124738095Y-132931009D02*
X124785714Y-133026247D01*
X124785714Y-133026247D02*
X124785714Y-133264342D01*
X124785714Y-133264342D02*
X124738095Y-133359580D01*
X124738095Y-133359580D02*
X124690476Y-133407200D01*
X124690476Y-133407200D02*
X124595238Y-133454819D01*
X124595238Y-133454819D02*
X124357143Y-133454819D01*
X124357143Y-133454819D02*
X124261905Y-133407200D01*
X124261905Y-133407200D02*
X124214286Y-133359580D01*
X139119047Y-132560224D02*
X139261904Y-132607843D01*
X139261904Y-132607843D02*
X139309523Y-132655462D01*
X139309523Y-132655462D02*
X139357142Y-132750700D01*
X139357142Y-132750700D02*
X139357142Y-132893557D01*
X139357142Y-132893557D02*
X139309523Y-132988795D01*
X139309523Y-132988795D02*
X139261904Y-133036415D01*
X139261904Y-133036415D02*
X139166666Y-133084034D01*
X139166666Y-133084034D02*
X138785714Y-133084034D01*
X138785714Y-133084034D02*
X138785714Y-132084034D01*
X138785714Y-132084034D02*
X139119047Y-132084034D01*
X139119047Y-132084034D02*
X139214285Y-132131653D01*
X139214285Y-132131653D02*
X139261904Y-132179272D01*
X139261904Y-132179272D02*
X139309523Y-132274510D01*
X139309523Y-132274510D02*
X139309523Y-132369748D01*
X139309523Y-132369748D02*
X139261904Y-132464986D01*
X139261904Y-132464986D02*
X139214285Y-132512605D01*
X139214285Y-132512605D02*
X139119047Y-132560224D01*
X139119047Y-132560224D02*
X138785714Y-132560224D01*
X139690476Y-132084034D02*
X140357142Y-132084034D01*
X140357142Y-132084034D02*
X139690476Y-133084034D01*
X139690476Y-133084034D02*
X140357142Y-133084034D01*
X141261904Y-133084034D02*
X140690476Y-133084034D01*
X140976190Y-133084034D02*
X140976190Y-132084034D01*
X140976190Y-132084034D02*
X140880952Y-132226891D01*
X140880952Y-132226891D02*
X140785714Y-132322129D01*
X140785714Y-132322129D02*
X140690476Y-132369748D01*
D11*
X144500000Y-135250000D02*
X144500000Y-136750000D01*
X145750000Y-139250000D02*
X150250000Y-139250000D01*
X150250000Y-132750000D02*
X145750000Y-132750000D01*
X151500000Y-136750000D02*
X151500000Y-135250000D01*
X109230000Y-119130000D02*
X109230000Y-119460000D01*
X109230000Y-121870000D02*
X109230000Y-121540000D01*
X115770000Y-119130000D02*
X109230000Y-119130000D01*
X115770000Y-119460000D02*
X115770000Y-119130000D01*
X115770000Y-121540000D02*
X115770000Y-121870000D01*
X115770000Y-121870000D02*
X109230000Y-121870000D01*
X113840000Y-127670000D02*
X113840000Y-137950000D01*
X113840000Y-137950000D02*
X115490000Y-137950000D01*
X117490000Y-137950000D02*
X119140000Y-137950000D01*
X119140000Y-127670000D02*
X113840000Y-127670000D01*
X119140000Y-137950000D02*
X119140000Y-127670000D01*
X115490000Y-137950000D02*
G75*
G02*
X117490000Y-137950000I1000000J0D01*
G01*
X126630000Y-129540000D02*
X126960000Y-129540000D01*
X126630000Y-136080000D02*
X126630000Y-129540000D01*
X126960000Y-136080000D02*
X126630000Y-136080000D01*
X129040000Y-136080000D02*
X129370000Y-136080000D01*
X129370000Y-129540000D02*
X129040000Y-129540000D01*
X129370000Y-136080000D02*
X129370000Y-129540000D01*
X110065000Y-129045000D02*
X110065000Y-125955000D01*
X104515000Y-127500462D02*
G75*
G02*
X110065000Y-125955170I2990000J462D01*
G01*
X110065000Y-129044830D02*
G75*
G02*
X104515000Y-127499538I-2560000J1544830D01*
G01*
X110005000Y-127500000D02*
G75*
G02*
X105005000Y-127500000I-2500000J0D01*
G01*
X105005000Y-127500000D02*
G75*
G02*
X110005000Y-127500000I2500000J0D01*
G01*
X144500000Y-103250000D02*
X144500000Y-104750000D01*
X145750000Y-107250000D02*
X150250000Y-107250000D01*
X150250000Y-100750000D02*
X145750000Y-100750000D01*
X151500000Y-104750000D02*
X151500000Y-103250000D01*
X143435000Y-111455000D02*
X143435000Y-114545000D01*
X143435000Y-111455170D02*
G75*
G02*
X148985000Y-113000462I2560000J-1544830D01*
G01*
X148985000Y-112999538D02*
G75*
G02*
X143435000Y-114544830I-2990000J-462D01*
G01*
X148495000Y-113000000D02*
G75*
G02*
X143495000Y-113000000I-2500000J0D01*
G01*
X143495000Y-113000000D02*
G75*
G02*
X148495000Y-113000000I2500000J0D01*
G01*
X101500000Y-103250000D02*
X101500000Y-104750000D01*
X102750000Y-107250000D02*
X107250000Y-107250000D01*
X107250000Y-100750000D02*
X102750000Y-100750000D01*
X108500000Y-104750000D02*
X108500000Y-103250000D01*
X101500000Y-135250000D02*
X101500000Y-136750000D01*
X102750000Y-139250000D02*
X107250000Y-139250000D01*
X107250000Y-132750000D02*
X102750000Y-132750000D01*
X108500000Y-136750000D02*
X108500000Y-135250000D01*
X148565000Y-129045000D02*
X148565000Y-125955000D01*
X143015000Y-127500462D02*
G75*
G02*
X148565000Y-125955170I2990000J462D01*
G01*
X148565000Y-129044830D02*
G75*
G02*
X143015000Y-127499538I-2560000J1544830D01*
G01*
X148505000Y-127500000D02*
G75*
G02*
X143505000Y-127500000I-2500000J0D01*
G01*
X143505000Y-127500000D02*
G75*
G02*
X148505000Y-127500000I2500000J0D01*
G01*
X149630000Y-116730000D02*
X149960000Y-116730000D01*
X149630000Y-123270000D02*
X149630000Y-116730000D01*
X149960000Y-123270000D02*
X149630000Y-123270000D01*
X152040000Y-123270000D02*
X152370000Y-123270000D01*
X152370000Y-116730000D02*
X152040000Y-116730000D01*
X152370000Y-123270000D02*
X152370000Y-116730000D01*
X112550000Y-110499999D02*
X118250000Y-110499999D01*
X112550000Y-116499999D02*
X112550000Y-110499999D01*
X112550000Y-116499999D02*
X118250000Y-116499999D01*
X118250000Y-116499999D02*
G75*
G02*
X119000000Y-116999999I0J-812500D01*
G01*
X119000000Y-109999999D02*
G75*
G02*
X118250000Y-110499999I-750000J312500D01*
G01*
X119000000Y-109999999D02*
G75*
G02*
X141445671Y-113499999I10949956J-3499989D01*
G01*
X141445671Y-113499999D02*
G75*
G02*
X119000000Y-116999999I-11495715J-11D01*
G01*
X104670000Y-111455000D02*
X104670000Y-114545000D01*
X104670000Y-111455170D02*
G75*
G02*
X110220000Y-113000462I2560000J-1544830D01*
G01*
X110220000Y-112999538D02*
G75*
G02*
X104670000Y-114544830I-2990000J-462D01*
G01*
X109730000Y-113000000D02*
G75*
G02*
X104730000Y-113000000I-2500000J0D01*
G01*
X104730000Y-113000000D02*
G75*
G02*
X109730000Y-113000000I2500000J0D01*
G01*
X113900000Y-100200000D02*
X111600000Y-100200000D01*
X120200000Y-100200000D02*
X118000000Y-100200000D01*
X120200000Y-104800000D02*
X111600000Y-104800000D01*
X100630000Y-116730000D02*
X100630000Y-123270000D01*
X100630000Y-123270000D02*
X100960000Y-123270000D01*
X100960000Y-116730000D02*
X100630000Y-116730000D01*
X103040000Y-116730000D02*
X103370000Y-116730000D01*
X103370000Y-116730000D02*
X103370000Y-123270000D01*
X103370000Y-123270000D02*
X103040000Y-123270000D01*
X122630000Y-129540000D02*
X122630000Y-136080000D01*
X122630000Y-136080000D02*
X122960000Y-136080000D01*
X122960000Y-129540000D02*
X122630000Y-129540000D01*
X125040000Y-129540000D02*
X125370000Y-129540000D01*
X125370000Y-129540000D02*
X125370000Y-136080000D01*
X125370000Y-136080000D02*
X125040000Y-136080000D01*
X135000001Y-126229215D02*
G75*
G02*
X138000000Y-126229215I1499999J-6400000D01*
G01*
X142730000Y-132629215D02*
G75*
G02*
X130270000Y-132629215I-6230000J0D01*
G01*
X130270000Y-132629215D02*
G75*
G02*
X142730000Y-132629215I6230000J0D01*
G01*
%LPC*%
D12*
X144750000Y-133750000D03*
X151250000Y-133750000D03*
X144750000Y-138250000D03*
X151250000Y-138250000D03*
D13*
X116310000Y-120500000D03*
D14*
X108690000Y-120500000D03*
D15*
X120300000Y-136620000D03*
D14*
X120300000Y-134080000D03*
X120300000Y-131540000D03*
X120300000Y-129000000D03*
X112680000Y-129000000D03*
X112680000Y-131540000D03*
X112680000Y-134080000D03*
X112680000Y-136620000D03*
D13*
X128000000Y-136620000D03*
D14*
X128000000Y-129000000D03*
D16*
X108775000Y-127500000D03*
D17*
X106235000Y-127500000D03*
D12*
X144750000Y-101750000D03*
X151250000Y-101750000D03*
X144750000Y-106250000D03*
X151250000Y-106250000D03*
D16*
X144725000Y-113000000D03*
D17*
X147265000Y-113000000D03*
D12*
X101750000Y-101750000D03*
X108250000Y-101750000D03*
X101750000Y-106250000D03*
X108250000Y-106250000D03*
X101750000Y-133750000D03*
X108250000Y-133750000D03*
X101750000Y-138250000D03*
X108250000Y-138250000D03*
D16*
X147275000Y-127500000D03*
D17*
X144735000Y-127500000D03*
D13*
X151000000Y-123810000D03*
D14*
X151000000Y-116190000D03*
D18*
X114750000Y-113499999D03*
D19*
X135240000Y-113499999D03*
D16*
X105960000Y-113000000D03*
D17*
X108500000Y-113000000D03*
D20*
X120000000Y-102500000D03*
X111800000Y-102500000D03*
D21*
X117900000Y-102500000D03*
D22*
X115900000Y-102500000D03*
X113900000Y-102500000D03*
D13*
X102000000Y-116190000D03*
D14*
X102000000Y-123810000D03*
D13*
X124000000Y-129000000D03*
D14*
X124000000Y-136620000D03*
D23*
X136500000Y-130129215D03*
D12*
X136500000Y-135129215D03*
%LPD*%
M02*
